<svg width="689" height="392" viewBox="0 0 689 392" fill="none" xmlns="http://www.w3.org/2000/svg">
<mask id="mask0_186_1122" style="mask-type:luminance" maskUnits="userSpaceOnUse" x="0" y="0" width="689" height="392">
<path d="2.696 70.4422 241.333 68.4105 239.888 66.5136C237.518 66.3982 235.077 66.3798 232.561 66.4637ZM228.068 60.1504C229.575 62.0159 231.013 64.0106 232.36 66.1735C234.853 66.0798 237.271 66.0875 239.621 66.1883C238.146 64.2843 236.572 62.5423 234.912 60.9455C232.703 60.5739 230.422 60.3084 228.068 60.1504ZM222.981 54.7032C224.657 56.2726 226.263 57.9755 227.786 59.8316C230.096 59.9722 232.334 60.2187 234.504 60.5639C232.813 58.9756 231.037 57.5309 229.169 56.2418C227.181 55.6101 225.109 55.1111 222.981 54.7032ZM217.863 50.5031C219.486 51.6654 221.048 52.9452 222.557 54.3268C224.578 54.6938 226.532 55.1676 228.437 55.7207C225.16 53.5529 221.624 51.8296 217.863 50.5031ZM663.463 371.293C662.265 370.663 661.059 370.01 659.852 369.351C658.432 369.48 657.01 369.606 655.586 369.729C656.817 370.308 658.049 370.888 659.272 371.437C660.672 371.393 662.069 371.345 663.463 371.293ZM667.366 373.311C666.187 372.718 665 372.097 663.812 371.473C662.439 371.526 661.064 371.575 659.686 371.619C660.909 372.166 662.129 372.706 663.344 373.227C664.688 373.261 666.029 373.29 667.366 373.311ZM671.296 375.236C670.118 374.669 668.94 374.104 667.755 373.512C666.444 373.492 665.13 373.465 663.814 373.434C665.026 373.95 666.233 374.446 667.439 374.939C668.727 375.045 670.013 375.144 671.296 375.236ZM675.098 377.035C673.992 376.526 672.882 376 671.769 375.465C670.529 375.378 669.287 375.284 668.041 375.183C669.148 375.638 670.256 376.1 671.354 376.526C672.604 376.702 673.854 376.876 675.098 377.035ZM678.814 378.717C677.777 378.261 676.733 377.782 675.689 377.303C674.533 377.157 673.378 377.014 672.217 376.853C673.311 377.267 674.4 377.667 675.489 378.068C676.6 378.292 677.708 378.509 678.814 378.717ZM682.603 380.33C681.61 379.914 680.619 379.507 679.622 379.077C678.631 378.893 677.633 378.69 676.638 378.494C677.544 378.825 678.447 379.146 679.348 379.459C680.432 379.746 681.525 380.061 682.603 380.33ZM685.162 381.402C684.672 381.205 684.178 380.994 683.685 380.784C683.234 380.675 682.787 380.579 682.335 380.466C683.278 380.782 684.224 381.105 685.162 381.402ZM235.688 240.718C235.29 239.69 234.891 238.646 234.49 237.59C234.206 239.01 233.934 240.41 233.617 241.883C233.933 242.884 234.248 243.871 234.562 244.846C234.933 243.477 235.322 242.08 235.688 240.718ZM237.3 244.828C236.804 243.581 236.306 242.314 235.806 241.022C235.438 242.395 235.046 243.802 234.672 245.183C235.083 246.454 235.492 247.702 235.9 248.93C236.357 247.576 236.847 246.178 237.3 244.828ZM239.14 249.388C238.567 247.991 237.99 246.562 237.411 245.106C236.954 246.465 236.462 247.871 236.001 249.235C236.486 250.69 236.969 252.117 237.45 253.514C238.001 252.154 238.595 250.741 239.14 249.388ZM241.178 254.258C240.538 252.758 239.893 251.217 239.246 249.642C238.697 251.003 238.1 252.423 237.546 253.791C238.094 255.376 238.64 256.926 239.184 258.436C239.832 257.062 240.543 255.618 241.178 254.258ZM243.399 259.344C242.697 257.772 241.991 256.156 241.28 254.494C240.641 255.861 239.928 257.311 239.276 258.692C239.882 260.37 240.486 262.001 241.088 263.588C241.836 262.197 242.671 260.714 243.399 259.344ZM245.792 264.561C245.033 262.948 244.268 261.284 243.499 259.565C242.768 260.942 241.93 262.429 241.179 263.827C241.841 265.57 242.501 267.258 243.159 268.894C244.018 267.468 244.958 265.963 245.792 264.561ZM248.354 269.847C247.539 268.218 246.718 266.524 245.893 264.774C245.058 266.178 244.109 267.691 243.249 269.119C243.97 270.909 244.689 272.631 245.406 274.293C246.396 272.804 247.39 271.312 248.354 269.847ZM231.592 83.0046C232.499 85.73 233.344 88.5837 234.122 91.5681C236.745 90.8963 239.307 90.2986 241.843 89.7296C241.072 86.8309 240.219 84.0776 239.29 81.4622C236.78 81.907 234.199 82.4394 231.592 83.0046ZM228.482 74.6978C229.559 77.2455 230.57 79.9316 231.515 82.7505C234.123 82.1814 236.698 81.6552 239.208 81.2063C238.248 78.5275 237.205 75.9944 236.081 73.6105C233.607 73.8958 231.067 74.2659 228.482 74.6978ZM224.833 66.9948C226.084 69.3329 227.265 71.8179 228.381 74.437C230.96 74.0012 233.496 73.6245 235.964 73.334C234.8 70.8889 233.54 68.6149 232.209 66.4742C229.811 66.5624 227.353 66.735 224.833 66.9948ZM220.635 59.9909C222.06 62.0876 223.413 64.3382 224.701 66.7239C227.196 66.4603 229.632 66.2806 232.007 66.1836C230.637 64.008 229.175 62.0005 227.64 60.1291C225.367 59.9894 223.034 59.9412 220.635 59.9909ZM215.831 53.7689C217.427 55.607 218.96 57.5799 220.421 59.7062C222.795 59.6475 225.106 59.6842 227.359 59.8095C225.791 57.9283 224.141 56.2028 222.416 54.6213C220.282 54.2365 218.087 53.9526 215.831 53.7689ZM210.581 48.4472C212.294 49.9806 213.945 51.6497 215.534 53.4539C217.745 53.6204 219.896 53.8862 221.99 54.2446C220.266 52.6987 218.47 51.2877 216.599 50.024C214.657 49.3841 212.642 48.8724 210.581 48.4472ZM205.427 44.3437C207.02 45.4596 208.558 46.6967 210.062 48.0106C211.998 48.3865 213.878 48.8642 215.714 49.4191C212.484 47.337 209.046 45.656 205.427 44.3437ZM668.078 371.101C666.895 370.392 665.706 369.663 664.514 368.92C663.08 369.056 661.643 369.189 660.205 369.32C661.428 369.983 662.649 370.64 663.865 371.277C665.272 371.223 666.676 371.164 668.078 371.101ZM671.942 373.36C670.755 372.676 669.569 371.994 668.374 371.282C666.99 371.345 665.602 371.403 664.213 371.457C665.415 372.088 666.619 372.721 667.812 373.318C669.191 373.339 670.568 373.352 671.942 373.36ZM675.785 375.53C674.62 374.885 673.452 374.23 672.28 373.556C670.925 373.549 669.568 373.537 668.208 373.518C669.421 374.12 670.627 374.698 671.832 375.275C673.153 375.368 674.471 375.452 675.785 375.53ZM679.521 377.564C678.412 376.976 677.297 376.364 676.18 375.746C674.891 375.672 673.6 375.593 672.305 375.505C673.459 376.054 674.609 376.59 675.755 377.114C677.014 377.272 678.269 377.423 679.521 377.564ZM683.307 379.523C682.214 378.969 681.117 378.4 680.017 377.82C678.797 377.685 677.572 377.533 676.347 377.382C677.463 377.893 678.581 378.407 679.689 378.888C680.899 379.112 682.104 379.318 683.307 379.523ZM686.992 381.34C685.954 380.837 684.917 380.34 683.872 379.815C682.777 379.632 681.688 379.465 680.587 379.265C681.641 379.715 682.694 380.161 683.743 380.592C684.831 380.857 685.909 381.092 686.992 381.34ZM235.392 232.181C235.028 231.341 234.662 230.493 234.295 229.635C234.076 231.316 233.87 232.972 233.617 234.716C233.89 235.449 234.163 236.171 234.434 236.891C234.748 235.329 235.083 233.734 235.392 232.181ZM237.009 235.873C236.517 234.762 236.023 233.635 235.527 232.492C235.215 234.056 234.88 235.66 234.563 237.232C234.968 238.303 235.372 239.361 235.774 240.403C236.175 238.908 236.612 237.361 237.009 235.873ZM238.91 240.112C238.321 238.816 237.729 237.498 237.133 236.155C236.734 237.651 236.295 239.205 235.892 240.708C236.396 242.012 236.897 243.288 237.397 244.547C237.887 243.087 238.432 241.555 238.91 240.112ZM241.044 244.739C240.377 243.314 239.704 241.855 239.028 240.369C238.546 241.82 238 243.358 237.507 244.824C238.089 246.289 238.668 247.728 239.244 249.133C239.824 247.693 240.484 246.156 241.044 244.739ZM243.365 249.601C242.634 248.096 241.898 246.559 241.156 244.978C240.593 246.401 239.932 247.942 239.35 249.388C240 250.97 240.646 252.519 241.289 254.026C241.974 252.558 242.701 251.044 243.365 249.601ZM245.866 254.646C245.076 253.085 244.279 251.48 243.475 249.829C242.811 251.273 242.077 252.794 241.39 254.263C242.103 255.931 242.811 257.554 243.515 259.131C244.32 257.614 245.083 256.14 245.866 254.646ZM248.556 259.834C247.702 258.229 246.842 256.571 245.974 254.861C245.191 256.355 244.42 257.836 243.614 259.353C244.385 261.076 245.149 262.744 245.909 264.36C246.826 262.818 247.662 261.354 248.556 259.834ZM251.44 265.105C250.523 263.475 249.598 261.788 248.664 260.035C247.767 261.56 246.93 263.026 246.01 264.573C246.837 266.329 247.659 268.027 248.475 269.66C249.49 268.117 250.447 266.627 251.44 265.105ZM224.158 84.7637C225.077 87.5842 225.953 90.5105 226.767 93.5775C229.164 92.9018 231.56 92.2283 233.896 91.6265C233.114 88.6356 232.264 85.7825 231.352 83.053C228.998 83.5672 226.585 84.1563 224.158 84.7637ZM221.008 76.1207C222.081 78.8068 223.121 81.5771 224.086 84.5204C226.51 83.9113 228.924 83.3159 231.276 82.7984C230.326 79.9746 229.309 77.2882 228.225 74.7373C225.866 75.1358 223.452 75.6073 221.008 76.1207ZM217.389 67.9697C218.617 70.4804 219.801 73.0959 220.917 75.8727C223.357 75.3567 225.769 74.8793 228.124 74.4766C227.001 71.8514 225.812 69.3615 224.551 67.0221C222.213 67.2677 219.825 67.5847 217.389 67.9697ZM213.291 60.4051C214.673 62.7097 216.005 65.1353 217.274 67.7149C219.703 67.3256 222.086 67.0028 224.419 66.7512C223.113 64.3502 221.731 62.108 220.286 60.001C218.006 60.0568 215.676 60.1879 213.291 60.4051ZM208.715 53.5195C210.247 55.5885 211.727 57.7905 213.145 60.1401C215.506 59.919 217.813 59.7799 220.071 59.7164C218.586 57.5762 217.028 55.5925 215.406 53.7472C213.229 53.5828 210.999 53.505 208.715 53.5195ZM203.61 47.3894C205.288 49.2059 206.919 51.1428 208.486 53.2388C210.746 53.215 212.952 53.282 215.109 53.4321C213.452 51.575 211.728 49.8656 209.937 48.3004C207.883 47.897 205.771 47.5974 203.61 47.3894ZM198.28 42.2503C200 43.7358 201.674 45.3434 203.298 47.0789C205.414 47.2689 207.477 47.5579 209.495 47.9282C207.768 46.4481 205.986 45.0881 204.144 43.8654C202.24 43.222 200.281 42.6925 198.28 42.2503ZM193.039 38.193C194.631 39.2901 196.179 40.5036 197.701 41.7864C199.505 42.1623 201.287 42.5846 203.012 43.1208C199.84 41.1286 196.514 39.4877 193.039 38.193ZM672.712 370.877C671.544 370.09 670.371 369.285 669.195 368.468C667.746 368.611 666.295 368.752 664.842 368.89C666.042 369.637 667.239 370.373 668.429 371.085C669.86 371.02 671.288 370.951 672.712 370.877ZM676.464 373.366C675.31 372.618 674.147 371.84 672.983 371.057C671.567 371.131 670.149 371.201 668.728 371.266C669.937 371.985 671.138 372.672 672.338 373.362C673.716 373.37 675.092 373.372 676.464 373.366ZM680.243 375.762C679.089 375.042 677.932 374.311 676.769 373.56C675.408 373.566 674.043 373.565 672.676 373.558C673.87 374.241 675.057 374.902 676.243 375.555C677.58 375.632 678.913 375.7 680.243 375.762ZM683.982 378.041C682.849 377.363 681.715 376.68 680.574 375.971C679.265 375.912 677.952 375.845 676.637 375.771C677.789 376.405 678.939 377.028 680.083 377.631C681.386 377.776 682.686 377.915 683.982 378.041ZM687.721 380.237C686.607 379.596 685.488 378.943 684.365 378.272C683.105 378.151 681.844 378.026 680.578 377.888C681.699 378.478 682.82 379.064 683.934 379.624C685.199 379.837 686.463 380.045 687.721 380.237ZM234.907 223.579C234.602 222.936 234.296 222.283 233.989 221.631C233.871 223.589 233.767 225.518 233.616 227.55C233.81 228.008 234.003 228.458 234.196 228.91C234.428 227.142 234.681 225.336 234.907 223.579ZM236.475 226.852C236.006 225.88 235.534 224.894 235.06 223.899C234.832 225.667 234.578 227.481 234.345 229.259C234.718 230.132 235.089 230.995 235.459 231.85C235.788 230.201 236.157 228.484 236.475 226.852ZM238.396 230.784C237.805 229.587 237.212 228.374 236.615 227.139C236.294 228.78 235.924 230.504 235.594 232.161C236.095 233.315 236.593 234.454 237.09 235.576C237.509 234.002 237.996 232.33 238.396 230.784ZM240.566 235.133C239.891 233.796 239.21 232.432 238.526 231.046C238.123 232.6 237.636 234.277 237.214 235.858C237.813 237.211 238.409 238.541 239.001 239.846C239.52 238.279 240.068 236.673 240.566 235.133ZM242.961 239.799C242.21 238.357 241.454 236.889 240.692 235.383C240.193 236.922 239.638 238.536 239.119 240.103C239.798 241.597 240.474 243.063 241.144 244.496C241.774 242.9 242.351 241.371 242.961 239.799ZM245.566 244.721C244.744 243.196 243.916 241.631 243.081 240.03C242.47 241.601 241.887 243.139 241.255 244.735C241.999 246.32 242.736 247.862 243.468 249.372C244.194 247.792 244.86 246.279 245.566 244.721ZM248.367 249.821C247.48 248.238 246.586 246.61 245.682 244.936C244.974 246.499 244.307 248.015 243.578 249.6C244.384 251.257 245.183 252.868 245.976 254.436C246.792 252.878 247.571 251.358 248.367 249.821ZM251.359 255.04C250.409 253.421 249.45 251.749 248.481 250.024C247.682 251.565 246.902 253.088 246.084 254.65C246.953 256.366 247.815 258.03 248.669 259.639C249.577 258.095 250.472 256.563 251.359 255.04ZM254.545 260.333C253.532 258.696 252.507 256.993 251.472 255.233C250.583 256.76 249.687 258.293 248.777 259.841C249.712 261.599 250.639 263.29 251.557 264.924C252.556 263.391 253.568 261.845 254.545 260.333ZM217.307 86.5783C218.273 89.4569 219.199 92.4432 220.087 95.538C222.26 94.8806 224.419 94.239 226.547 93.6375C225.73 90.5704 224.856 87.6379 223.934 84.8179C221.755 85.3655 219.542 85.9591 217.307 86.5783ZM214.069 77.7035C215.163 80.4654 216.214 83.3488 217.224 86.3484C219.46 85.7264 221.68 85.1257 223.862 84.5747C222.893 81.6279 221.849 78.8576 220.772 76.1688C218.571 76.6344 216.334 77.1493 214.069 77.7035ZM210.381 69.2313C211.616 71.8644 212.82 74.5877 213.967 77.4702C216.235 76.9126 218.477 76.3902 220.681 75.9208C219.559 73.1396 218.369 70.5222 217.135 68.0095C214.92 68.3632 212.671 68.7682 210.381 69.2313ZM206.272 61.2383C207.646 63.7067 208.991 66.2611 210.276 68.9889C212.561 68.5229 214.809 68.112 217.02 67.7542C215.744 65.1694 214.403 62.7382 213.012 60.4325C210.805 60.6384 208.562 60.9007 206.272 61.2383ZM201.741 53.8152C203.25 56.0829 204.724 58.4543 206.143 60.9892C208.424 60.6484 210.659 60.3791 212.858 60.1683C211.422 57.8056 209.918 55.6068 208.367 53.5296C206.201 53.5508 203.996 53.6397 201.741 53.8152ZM196.799 47.0482C198.435 49.0869 200.034 51.2447 201.58 53.5548C203.811 53.3753 205.994 53.2792 208.137 53.249C206.546 51.1385 204.889 49.1912 203.184 47.3675C201.099 47.1797 198.974 47.0668 196.799 47.0482ZM191.516 41.1172C193.236 42.8777 194.92 44.7521 196.556 46.7725C198.707 46.7814 200.809 46.8833 202.872 47.0566C201.169 45.2584 199.409 43.6064 197.601 42.0801C195.619 41.6628 193.586 41.3506 191.516 41.1172ZM186.021 36.0605C187.761 37.5102 189.466 39.0746 191.133 40.7576C193.131 40.9684 195.103 41.2368 197.022 41.616C195.303 40.1992 193.538 38.8976 191.731 37.7138C189.868 37.0678 187.963 36.5187 186.021 36.0605ZM180.703 32.053C182.305 33.1377 183.872 34.34 185.42 35.6007C187.143 35.9858 188.851 36.41 190.514 36.9413C187.362 34.9863 184.091 33.3552 180.703 32.053ZM677.331 370.619C676.182 369.762 675.027 368.886 673.869 367.997C672.414 368.146 670.955 368.293 669.495 368.438C670.681 369.26 671.864 370.069 673.041 370.859C674.474 370.784 675.904 370.703 677.331 370.619ZM681.015 373.325C679.873 372.502 678.725 371.656 677.574 370.799C676.156 370.883 674.735 370.963 673.311 371.039C674.489 371.829 675.664 372.61 676.831 373.366C678.229 373.359 679.623 373.344 681.015 373.325ZM684.698 375.942C683.566 375.155 682.425 374.338 681.283 373.516C679.903 373.535 678.521 373.551 677.135 373.558C678.308 374.314 679.476 375.057 680.64 375.78C681.996 375.841 683.349 375.897 684.698 375.942ZM688.366 378.434C687.246 377.685 686.123 376.926 684.995 376.145C683.657 376.101 682.316 376.049 680.971 375.99C682.13 376.707 683.28 377.395 684.43 378.082C685.746 378.208 687.058 378.327 688.366 378.434ZM234.223 214.835C234.002 214.405 233.782 213.976 233.56 213.54C233.586 215.799 233.623 218.034 233.614 220.382C233.691 220.546 233.767 220.706 233.842 220.867C233.964 218.867 234.107 216.822 234.223 214.835ZM235.693 217.691C235.262 216.861 234.83 216.021 234.396 215.173C234.279 217.17 234.137 219.222 234.014 221.231C234.328 221.899 234.642 222.565 234.954 223.225C235.19 221.4 235.475 219.483 235.693 217.691ZM237.571 221.286C237 220.202 236.426 219.104 235.849 217.991C235.629 219.792 235.344 221.715 235.107 223.548C235.586 224.558 236.064 225.554 236.539 226.539C236.878 224.796 237.254 222.994 237.571 221.286ZM239.754 225.389C239.081 224.136 238.402 222.86 237.719 221.567C237.401 223.273 237.018 225.086 236.678 226.827C237.28 228.074 237.878 229.296 238.473 230.503C238.921 228.767 239.325 227.096 239.754 225.389ZM242.215 229.907C241.446 228.512 240.672 227.094 239.892 225.646C239.463 227.351 239.051 229.03 238.602 230.765C239.289 232.157 239.972 233.527 240.65 234.869C241.194 233.185 241.689 231.566 242.215 229.907ZM244.907 234.725C244.06 233.233 243.206 231.701 242.345 230.142C241.817 231.807 241.322 233.428 240.775 235.118C241.54 236.632 242.299 238.11 243.053 239.559C243.685 237.931 244.294 236.331 244.907 234.725ZM247.808 239.752C246.891 238.188 245.966 236.589 245.031 234.944C244.416 236.554 243.807 238.156 243.173 239.789C244.011 241.397 244.842 242.969 245.666 244.5C246.385 242.911 247.108 241.319 247.808 239.752ZM250.902 244.929C249.92 243.318 248.929 241.663 247.928 239.959C247.226 241.529 246.504 243.123 245.782 244.716C246.687 246.395 247.584 248.029 248.473 249.617C249.281 248.056 250.115 246.467 250.902 244.929ZM254.186 250.204C253.142 248.566 252.086 246.871 251.02 245.124C250.231 246.666 249.396 248.256 248.587 249.82C249.557 251.55 250.518 253.227 251.47 254.85C252.364 253.312 253.315 251.719 254.186 250.204ZM257.671 255.529C256.561 253.877 255.44 252.167 254.305 250.388C253.431 251.907 252.48 253.501 251.582 255.043C252.619 256.808 253.645 258.515 254.66 260.156C255.643 258.632 256.714 257.028 257.671 255.529ZM211.143 88.3304C212.19 91.2317 213.206 94.2436 214.197 97.338C216.118 96.724 217.991 96.1722 219.878 95.6018C218.988 92.5056 218.058 89.5181 217.09 86.639C215.121 87.1846 213.153 87.7287 211.143 88.3304ZM207.694 79.3337C208.847 82.1478 209.966 85.0859 211.061 88.1093C213.069 87.5067 215.039 86.9565 217.006 86.4091C215.993 83.4077 214.937 80.5246 213.84 77.7603C211.81 78.2571 209.772 78.7665 207.694 79.3337ZM203.892 70.6417C205.16 73.3453 206.392 76.1804 207.597 79.1099C209.673 78.5414 211.711 78.0265 213.738 77.5269C212.588 74.6446 211.385 71.9121 210.148 69.2799C208.086 69.6983 206.011 70.137 203.892 70.6417ZM199.711 62.3362C201.099 64.9067 202.454 67.6036 203.778 70.4141C205.899 69.9058 207.978 69.4601 210.043 69.0376C208.752 66.3055 207.401 63.7483 206.02 61.2783C203.944 61.5872 201.851 61.9232 199.711 62.3362ZM195.129 54.504C196.644 56.9205 198.133 59.4349 199.58 62.1024C201.72 61.6858 203.815 61.3419 205.891 61.029C204.464 58.4893 202.982 56.1114 201.463 53.8428C199.384 54.0081 197.281 54.2132 195.129 54.504ZM190.193 47.2393C191.821 49.4603 193.425 51.7809 194.986 54.2598C197.125 53.9657 199.218 53.7544 201.288 53.5835C199.724 51.2627 198.106 49.1036 196.452 47.0585C194.401 47.0492 192.317 47.1051 190.193 47.2393ZM184.96 40.6723C186.673 42.651 188.359 44.7339 190.007 46.9677C192.114 46.8276 194.174 46.7805 196.208 46.7821C194.532 44.7283 192.804 42.8304 191.04 41.048C189.052 40.8377 187.02 40.7241 184.96 40.6723ZM179.465 34.8581C181.236 36.5733 182.979 38.4067 184.689 40.3663C186.708 40.4076 188.706 40.4972 190.656 40.6883C188.922 38.9601 187.144 37.367 185.332 35.889C183.412 35.4572 181.454 35.1171 179.465 34.8581ZM173.807 29.879C175.586 31.3065 177.337 32.8523 179.063 34.5022C180.982 34.7374 182.875 35.0353 184.73 35.4292C182.977 34.031 181.188 32.7466 179.367 31.5711C177.542 30.9227 175.69 30.3557 173.807 29.879ZM168.369 25.9047C169.995 26.9818 171.594 28.1749 173.18 29.4211C174.844 29.8209 176.491 30.2664 178.108 30.8006C174.951 28.8646 171.706 27.2202 168.369 25.9047ZM681.943 370.331C680.815 369.407 679.682 368.464 678.545 367.505C677.083 367.662 675.617 367.816 674.149 367.968C675.315 368.862 676.477 369.74 677.634 370.601C679.073 370.515 680.51 370.426 681.943 370.331ZM685.545 373.241C684.424 372.351 683.295 371.437 682.163 370.51C680.738 370.605 679.308 370.695 677.876 370.781C679.037 371.643 680.194 372.493 681.345 373.32C682.748 373.3 684.149 373.274 685.545 373.241ZM323.937 283.018C323.781 283.12 323.624 283.219 323.467 283.318C323.258 283.539 323.05 283.759 322.841 283.977C323.208 283.665 323.573 283.345 323.937 283.018ZM357.322 238.77C359.268 235.263 361.219 231.674 363.186 228.041C360.951 231.592 358.755 235.14 356.586 238.644C354.92 241.335 353.271 244 351.632 246.621C353.5 244.016 355.395 241.392 357.322 238.77ZM234.629 208.313C234.254 207.631 233.88 206.95 233.503 206.257C233.535 208.278 233.53 210.394 233.551 212.446C233.57 212.709 233.595 212.952 233.613 213.216C233.825 213.635 234.036 214.044 234.247 214.456C234.365 212.428 234.535 210.29 234.629 208.313ZM236.412 2" />
</mask>
<g mask="url(#mask0_186_1122)">
<path d="M689 -1H0V392.904H689V-1Z" fill="white"/>
</g>
</svg>
